#!OML:ASF F:\VICON\USERDATA\INSTALL\rory3\rory3.ASF
:FULLY-SPECIFIED
:DEGREES
9
root 1.2050231178332114 17.69321039579373 -24.392285312327715 -1.5554384468797071 1.8212744124779887 2.1981476602798744
lfemur 10.58428654884427 -1.5794940128334616 -26.839188950342397
ltibia 15.782810214748881
lfoot -18.46358889414622 -2.9254488856144834
ltoes 2.584600760163424
rfemur -30.019088505024982 9.905942928509962 14.522217308079753
rtibia 17.78681157969414
rfoot -9.642609039707612 -13.349382142004124
rtoes 3.113700493588654
lowerback 11.392388909719068 -1.5881773456821278 -3.7766579435356746
upperback -0.2631188905189761 -2.4872365890987176 1.9891157861521194
thorax -6.4269365278675625 -1.0622471329979817 4.6495051905822775
lowerneck -15.232208270213526 -2.137188292476683 -2.9128527038595724
upperneck 22.95049923424353 -2.063699691991409 -0.7519813356058896
head 9.824681633128183 -1.301979202934898 -0.039762450717621134
lclavicle -1.3874279988076998e-15 -1.8436986189417256e-15
lhumerus -22.513813788402814 -4.36500511075314 79.93630775195713
lradius 35.911179006475905
lwrist 9.043975136783486
lhand -31.346884682728085 23.372200955312493
lfingers 7.125019999999999
lthumb -4.618114682713445 53.30190105039735
rclavicle -1.3874279988076998e-15 -1.8436986189417256e-15
rhumerus -36.89548963924464 -26.93479544632269 -69.77760892740403
rradius 21.26600640276515
rwrist 9.422044770335676
rhand -19.868186102418726 19.77841475163756
rfingers 7.125019999999999
rthumb 6.4670238988263975 -10.102784907124782
10
root 1.1271950080548812 17.607715701497074 -23.67128563233301 -1.5792182598823468 1.6665151456856158 2.1884576869856063
lfemur 12.63868516935142 -2.306001166075067 -26.776089049859763
ltibia 17.030409494144926
lfoot -18.693788653779645 -2.4658296009499834
ltoes -1.5328529696230697
rfemur -30.48918816951319 8.419127542686233 15.498915813140636
rtibia 20.52991003773955
rfoot -7.602991511458981 -9.407971990889433
rtoes 5.281277010203956
lowerback 11.733885414773086 -1.8459655962063266 -4.33760647876414
upperback -0.5037341352807565 -2.8934947998678684 2.4106511138162103
thorax -6.785961784949638 -1.2180256305154196 5.511281553786173
lowerneck -14.709715045241213 -1.9348633896148288 -3.146498938564246
upperneck 21.888106159753665 -1.648595251859197 -1.1740966605212315
head 9.3481899903237 -1.1669744431479085 -0.08132230702262296
lclavicle -1.3874280538432022e-15 -1.843698613403746e-15
lhumerus -23.5888118915532 -3.471666844976159 79.97010755907837
lradius 37.27717649925392
lwrist 9.771823286813186
lhand -32.169681399080496 23.076501775449938
lfingers 7.125019999999999
lthumb -5.412521399965277 52.987301922797855
rclavicle -1.3874280538432022e-15 -1.843698613403746e-15
rhumerus -37.78858834238161 -27.528294716716246 -68.18231143490463
rradius 20.139208577612756
rwrist 10.684892782639661
rhand -19.048292789559742 21.697903787825755
rfingers 7.125019999999999
rthumb 7.258527209960681 -8.157566015387706
11
root 1.0139177592345139 17.565218338834992 -22.879285983850714 -1.5699083330928352 2.2277924865050895 2.178127715455211
lfemur 13.833384367131783 -3.3327571428164102 -26.2894898172946
ltibia 19.742407927715
lfoot -17.43898996399665 -4.023907176012137
ltoes -5.5699168218302955
rfemur -30.66308804540028 7.4635905080956455 16.557914192232957
rtibia 25.42530728593158
rfoot -4.864394830282253 -8.753783625590208
rtoes 0.2505430948004719
lowerback 11.704385716679106 -1.8720954188767052 -4.354446434790968
upperback -0.3678398209370112 -2.944194576577364 2.1721637572317607
thorax -6.629123856863538 -1.2549652742328048 5.266312587583596
lowerneck -16.296294472496854 -1.9435631704426746 -2.583408012982385
upperneck 22.18370423281391 -1.7574237942204696 -1.1034474429876682
head 9.742373076739437 -1.166444463719072 -0.1833019552416573
lclavicle -1.3874280534707017e-15 -1.843698643862755e-15
lhumerus -23.608011857674573 -4.305005227229935 79.98990744609023
lradius 37.68527575020754
lwrist 10.03878260828317
lhand -32.03648193065787 21.39160644859697
lfingers 7.125019999999999
lthumb -5.283971931173703 51.3057065859533
rclavicle -1.3874280534707017e-15 -1.843698643862755e-15
rhumerus -39.17488632934706 -32.19478898005508 -65.53131560175983
rradius 18.8489110680333
rwrist 14.391386948696343
rhand -19.165091836933723 21.844102952759705
rfingers 7.125019999999999
rthumb 7.145768162869045 -8.015246828108042
12
root 0.9253189110465436 17.63961372194226 -22.070586342780466 -1.9554553012664595 2.2059325900713818 0.9392151299224034
lfemur 13.815284379285623 -4.724421689693602 -24.893292019293238
ltibia 25.266604736980334
lfoot -14.122793426653349 -5.418935004839252
ltoes -14.458483285986787
rfemur -29.935388564761887 6.352913954964327 19.05161037537034
rtibia 28.74780541828397
rfoot -1.1533793275507351 -6.165420093451867
rtoes 3.682269579874725
lowerback 11.713885619455136 -2.1949032281467207 -3.2413393413812797
upperback -0.49171337284504235 -3.184263519272554 2.7023078810660746
thorax -6.766332044269131 -1.395193921728442 5.245132676965273
lowerneck -16.52659148629805 -1.745048171598534 -2.8172542444640345
upperneck 22.84209994087502 -1.2966699655116627 -1.5146928882909811
head 10.0183982355292 -1.0298697648693054 -0.2348344131126463
lclavicle -1.3874281147453207e-15 -1.8436985427942027e-15
lhumerus -24.631510051697283 -2.681538378839674 80.48590461568003
lradius 36.208678460430136
lwrist 8.979685300188828
lhand -32.36888060410895 21.44410630298583
lfingers 7.125019999999999
lthumb -5.604860605156842 51.35000646310732
rclavicle -1.3874281147453207e-15 -1.8436985427942027e-15
rhumerus -40.033585082435984 -33.21538772540242 -64.049817930389
rradius 18.23401225485775
rwrist 14.044087495338337
rhand -21.75357072501211 19.93261387087706
rfingers 7.125019999999999
rthumb 4.646709282009072 -9.99638551472346
